<?xml version="1.0" encoding="UTF-8"?>
<svg xmlns="http://www.w3.org/2000/svg" xmlns:xlink="http://www.w3.org/1999/xlink" width="328pt" height="103pt" viewBox="0 0 328 103" version="1.1">
<defs>
<clipPath id="clip1">
  <path d="M 310 73 L 327.601562 73 L 327.601562 89 L 310 89 Z M 310 73 "/>
</clipPath>
<clipPath id="clip2">
  <path d="M 34 0.140625 L 38 0.140625 L 38 4 L 34 4 Z M 34 0.140625 "/>
</clipPath>
</defs>
<g id="surface1">
<path style=" stroke:none;fill-rule:nonzero;fill:rgb(15.25116%,19.844055%,47.996521%);fill-opacity:1;" d="M 73.722656 41.175781 L 78.019531 41.175781 L 83.542969 57.222656 L 89.148438 41.175781 L 93.4375 41.175781 L 85.527344 63.761719 L 81.5 63.761719 L 73.722656 41.175781 "/>
<path style=" stroke:none;fill-rule:nonzero;fill:rgb(15.25116%,19.844055%,47.996521%);fill-opacity:1;" d="M 101.597656 47.164062 L 98.652344 54.917969 L 104.527344 54.917969 Z M 99.453125 41.175781 L 103.691406 41.175781 L 112.136719 63.761719 L 107.792969 63.761719 L 106.074219 59.109375 L 97.117188 59.109375 L 95.332031 63.761719 L 90.988281 63.761719 L 99.453125 41.175781 "/>
<path style=" stroke:none;fill-rule:nonzero;fill:rgb(15.25116%,19.844055%,47.996521%);fill-opacity:1;" d="M 134.539062 45.144531 L 131.613281 48.011719 C 129.628906 45.847656 127.390625 44.769531 124.90625 44.769531 C 122.808594 44.769531 121.039062 45.507812 119.605469 46.980469 C 118.167969 48.457031 117.449219 50.277344 117.449219 52.4375 C 117.449219 53.945312 117.765625 55.28125 118.402344 56.449219 C 119.039062 57.617188 119.9375 58.535156 121.101562 59.203125 C 122.265625 59.867188 123.558594 60.199219 124.980469 60.199219 C 126.191406 60.199219 127.300781 59.96875 128.304688 59.5 C 129.308594 59.035156 130.410156 58.1875 131.613281 56.957031 L 134.449219 60 C 132.828125 61.628906 131.292969 62.757812 129.851562 63.386719 C 128.410156 64.015625 126.761719 64.332031 124.910156 64.332031 C 121.5 64.332031 118.703125 63.21875 116.53125 60.992188 C 114.355469 58.765625 113.269531 55.910156 113.269531 52.429688 C 113.269531 50.179688 113.765625 48.175781 114.753906 46.425781 C 115.746094 44.675781 117.164062 43.269531 119.007812 42.203125 C 120.855469 41.140625 122.84375 40.605469 124.972656 40.605469 C 126.78125 40.605469 128.527344 41 130.203125 41.789062 C 131.878906 42.574219 133.324219 43.695312 134.539062 45.144531 "/>
<path style=" stroke:none;fill-rule:nonzero;fill:rgb(15.25116%,19.844055%,47.996521%);fill-opacity:1;" d="M 157.363281 45.144531 L 154.4375 48.011719 C 152.449219 45.847656 150.214844 44.769531 147.730469 44.769531 C 145.632812 44.769531 143.863281 45.507812 142.425781 46.980469 C 140.992188 48.457031 140.273438 50.277344 140.273438 52.4375 C 140.273438 53.945312 140.589844 55.28125 141.226562 56.449219 C 141.863281 57.617188 142.761719 58.535156 143.925781 59.203125 C 145.089844 59.867188 146.382812 60.199219 147.804688 60.199219 C 149.015625 60.199219 150.125 59.96875 151.128906 59.5 C 152.132812 59.035156 153.234375 58.1875 154.4375 56.957031 L 157.273438 60 C 155.652344 61.628906 154.117188 62.757812 152.675781 63.386719 C 151.234375 64.015625 149.585938 64.332031 147.734375 64.332031 C 144.320312 64.332031 141.527344 63.21875 139.355469 60.992188 C 137.183594 58.765625 136.097656 55.910156 136.097656 52.429688 C 136.097656 50.179688 136.589844 48.175781 137.582031 46.425781 C 138.570312 44.675781 139.988281 43.269531 141.832031 42.203125 C 143.675781 41.140625 145.664062 40.605469 147.796875 40.605469 C 149.605469 40.605469 151.347656 41 153.027344 41.789062 C 154.703125 42.574219 156.148438 43.695312 157.363281 45.144531 "/>
<path style=" stroke:none;fill-rule:nonzero;fill:rgb(15.25116%,19.844055%,47.996521%);fill-opacity:1;" d="M 160.71875 41.175781 L 164.871094 41.175781 L 164.871094 63.761719 L 160.71875 63.761719 L 160.71875 41.175781 "/>
<path style=" stroke:none;fill-rule:nonzero;fill:rgb(15.25116%,19.844055%,47.996521%);fill-opacity:1;" d="M 169.585938 41.175781 L 173.59375 41.175781 L 182.988281 56.039062 L 182.988281 41.175781 L 187.167969 41.175781 L 187.167969 63.761719 L 183.148438 63.761719 L 173.765625 48.945312 L 173.765625 63.761719 L 169.585938 63.761719 L 169.585938 41.175781 "/>
<path style=" stroke:none;fill-rule:nonzero;fill:rgb(15.25116%,19.844055%,47.996521%);fill-opacity:1;" d="M 192.199219 41.175781 L 204.183594 41.175781 L 204.183594 45.382812 L 196.347656 45.382812 L 196.347656 49.46875 L 204.183594 49.46875 L 204.183594 53.597656 L 196.347656 53.597656 L 196.347656 59.539062 L 204.183594 59.539062 L 204.183594 63.761719 L 192.199219 63.761719 L 192.199219 41.175781 "/>
<path style=" stroke:none;fill-rule:nonzero;fill:rgb(15.25116%,19.844055%,47.996521%);fill-opacity:1;" d="M 216.332031 41.175781 L 220.480469 41.175781 L 220.480469 63.761719 L 216.332031 63.761719 L 216.332031 41.175781 "/>
<path style=" stroke:none;fill-rule:nonzero;fill:rgb(15.25116%,19.844055%,47.996521%);fill-opacity:1;" d="M 227.3125 41.175781 L 231.386719 41.175781 L 236.472656 56.929688 L 241.609375 41.175781 L 245.679688 41.175781 L 249.363281 63.761719 L 245.320312 63.761719 L 242.964844 49.496094 L 238.304688 63.761719 L 234.621094 63.761719 L 229.996094 49.496094 L 227.585938 63.761719 L 223.511719 63.761719 L 227.3125 41.175781 "/>
<path style=" stroke:none;fill-rule:nonzero;fill:rgb(15.25116%,19.844055%,47.996521%);fill-opacity:1;" d="M 256.855469 50.003906 L 258.183594 50.003906 C 259.230469 50.003906 259.953125 49.925781 260.363281 49.773438 C 260.769531 49.617188 261.089844 49.367188 261.324219 49.011719 C 261.558594 48.65625 261.675781 48.226562 261.675781 47.722656 C 261.675781 46.851562 261.347656 46.214844 260.691406 45.8125 C 260.214844 45.515625 259.328125 45.367188 258.035156 45.367188 L 256.855469 45.367188 Z M 252.675781 41.175781 L 257.109375 41.175781 C 259.507812 41.175781 261.234375 41.402344 262.296875 41.859375 C 263.355469 42.316406 264.191406 43.050781 264.804688 44.070312 C 265.414062 45.089844 265.71875 46.308594 265.71875 47.730469 C 265.71875 49.308594 265.320312 50.617188 264.519531 51.664062 C 263.71875 52.707031 262.632812 53.433594 261.257812 53.84375 C 260.453125 54.078125 258.984375 54.195312 256.855469 54.195312 L 256.855469 63.761719 L 252.675781 63.761719 L 252.675781 41.175781 "/>
<path style=" stroke:none;fill-rule:nonzero;fill:rgb(15.25116%,19.844055%,47.996521%);fill-opacity:1;" d="M 278.652344 47.164062 L 275.707031 54.917969 L 281.582031 54.917969 Z M 276.507812 41.175781 L 280.746094 41.175781 L 289.191406 63.761719 L 284.847656 63.761719 L 283.128906 59.109375 L 274.171875 59.109375 L 272.386719 63.761719 L 268.042969 63.761719 L 276.507812 41.175781 "/>
<path style=" stroke:none;fill-rule:nonzero;fill:rgb(15.25116%,19.844055%,47.996521%);fill-opacity:1;" d="M 312.601562 45.144531 L 309.679688 48.011719 C 307.691406 45.847656 305.453125 44.769531 302.96875 44.769531 C 300.871094 44.769531 299.101562 45.507812 297.667969 46.980469 C 296.230469 48.457031 295.511719 50.277344 295.511719 52.4375 C 295.511719 53.945312 295.828125 55.28125 296.464844 56.449219 C 297.101562 57.617188 298.003906 58.535156 299.164062 59.203125 C 300.328125 59.867188 301.621094 60.199219 303.042969 60.199219 C 304.253906 60.199219 305.363281 59.96875 306.367188 59.5 C 307.371094 59.035156 308.476562 58.1875 309.679688 56.957031 L 312.511719 60 C 310.890625 61.628906 309.359375 62.757812 307.914062 63.386719 C 306.472656 64.015625 304.824219 64.332031 302.972656 64.332031 C 299.5625 64.332031 296.769531 63.21875 294.59375 60.992188 C 292.421875 58.765625 291.332031 55.910156 291.332031 52.429688 C 291.332031 50.179688 291.828125 48.175781 292.816406 46.425781 C 293.808594 44.675781 295.226562 43.269531 297.070312 42.203125 C 298.917969 41.140625 300.90625 40.605469 303.035156 40.605469 C 304.84375 40.605469 306.589844 41 308.265625 41.789062 C 309.941406 42.574219 311.386719 43.695312 312.601562 45.144531 "/>
<path style=" stroke:none;fill-rule:nonzero;fill:rgb(15.25116%,19.844055%,47.996521%);fill-opacity:1;" d="M 314.09375 41.175781 L 326.226562 41.175781 L 326.226562 45.414062 L 322.226562 45.414062 L 322.226562 63.761719 L 317.988281 63.761719 L 317.988281 45.414062 L 314.09375 45.414062 L 314.09375 41.175781 "/>
<path style=" stroke:none;fill-rule:nonzero;fill:rgb(22.143555%,44.502258%,75.784302%);fill-opacity:1;" d="M 75.996094 73.886719 L 78.710938 73.886719 L 82.105469 84.105469 L 85.53125 73.886719 L 88.246094 73.886719 L 90.703125 88.535156 L 88.007812 88.535156 L 86.4375 79.285156 L 83.324219 88.535156 L 80.867188 88.535156 L 77.785156 79.285156 L 76.175781 88.535156 L 73.460938 88.535156 L 75.996094 73.886719 "/>
<path style=" stroke:none;fill-rule:nonzero;fill:rgb(22.143555%,44.502258%,75.784302%);fill-opacity:1;" d="M 99.808594 76.25 C 98.453125 76.25 97.3125 76.71875 96.390625 77.660156 C 95.464844 78.605469 95.003906 79.800781 95.003906 81.257812 C 95.003906 82.875 95.585938 84.15625 96.75 85.097656 C 97.652344 85.835938 98.6875 86.203125 99.859375 86.203125 C 101.179688 86.203125 102.308594 85.726562 103.238281 84.769531 C 104.167969 83.816406 104.632812 82.636719 104.632812 81.238281 C 104.632812 79.84375 104.164062 78.664062 103.226562 77.695312 C 102.289062 76.730469 101.148438 76.25 99.808594 76.25 Z M 99.839844 73.519531 C 101.910156 73.519531 103.691406 74.269531 105.183594 75.769531 C 106.675781 77.269531 107.421875 79.097656 107.421875 81.257812 C 107.421875 83.394531 106.683594 85.203125 105.214844 86.683594 C 103.742188 88.164062 101.957031 88.902344 99.859375 88.902344 C 97.660156 88.902344 95.832031 88.144531 94.378906 86.621094 C 92.925781 85.101562 92.195312 83.296875 92.195312 81.207031 C 92.195312 79.804688 92.535156 78.519531 93.210938 77.34375 C 93.890625 76.167969 94.820312 75.238281 96.007812 74.550781 C 97.191406 73.863281 98.46875 73.519531 99.839844 73.519531 "/>
<path style=" stroke:none;fill-rule:nonzero;fill:rgb(22.143555%,44.502258%,75.784302%);fill-opacity:1;" d="M 112.828125 76.578125 L 112.828125 85.816406 L 114.121094 85.816406 C 115.394531 85.816406 116.320312 85.671875 116.894531 85.378906 C 117.46875 85.085938 117.9375 84.59375 118.300781 83.902344 C 118.667969 83.210938 118.851562 82.359375 118.851562 81.351562 C 118.851562 79.796875 118.414062 78.589844 117.546875 77.734375 C 116.761719 76.960938 115.503906 76.578125 113.773438 76.578125 Z M 110.058594 73.886719 L 113.359375 73.886719 C 115.488281 73.886719 117.070312 74.152344 118.105469 74.679688 C 119.140625 75.207031 119.992188 76.066406 120.664062 77.253906 C 121.332031 78.441406 121.667969 79.828125 121.667969 81.414062 C 121.667969 82.542969 121.480469 83.582031 121.105469 84.527344 C 120.730469 85.472656 120.214844 86.257812 119.554688 86.882812 C 118.894531 87.503906 118.179688 87.9375 117.410156 88.175781 C 116.640625 88.414062 115.308594 88.535156 113.410156 88.535156 L 110.058594 88.535156 L 110.058594 73.886719 "/>
<path style=" stroke:none;fill-rule:nonzero;fill:rgb(22.143555%,44.502258%,75.784302%);fill-opacity:1;" d="M 124.335938 73.886719 L 132.332031 73.886719 L 132.332031 76.617188 L 127.101562 76.617188 L 127.101562 79.265625 L 132.332031 79.265625 L 132.332031 81.941406 L 127.101562 81.941406 L 127.101562 85.796875 L 132.332031 85.796875 L 132.332031 88.535156 L 124.335938 88.535156 L 124.335938 73.886719 "/>
<path style=" stroke:none;fill-rule:nonzero;fill:rgb(22.143555%,44.502258%,75.784302%);fill-opacity:1;" d="M 134.929688 73.886719 L 137.714844 73.886719 L 137.714844 85.875 L 141.777344 85.875 L 141.777344 88.535156 L 134.929688 88.535156 L 134.929688 73.886719 "/>
<path style=" stroke:none;fill-rule:nonzero;fill:rgb(22.143555%,44.502258%,75.784302%);fill-opacity:1;" d="M 143.898438 73.886719 L 146.6875 73.886719 L 146.6875 85.875 L 150.75 85.875 L 150.75 88.535156 L 143.898438 88.535156 L 143.898438 73.886719 "/>
<path style=" stroke:none;fill-rule:nonzero;fill:rgb(22.143555%,44.502258%,75.784302%);fill-opacity:1;" d="M 152.671875 73.886719 L 155.4375 73.886719 L 155.4375 88.535156 L 152.671875 88.535156 L 152.671875 73.886719 "/>
<path style=" stroke:none;fill-rule:nonzero;fill:rgb(22.143555%,44.502258%,75.784302%);fill-opacity:1;" d="M 158.585938 73.886719 L 161.257812 73.886719 L 167.527344 83.527344 L 167.527344 73.886719 L 170.3125 73.886719 L 170.3125 88.535156 L 167.632812 88.535156 L 161.371094 78.925781 L 161.371094 88.535156 L 158.585938 88.535156 L 158.585938 73.886719 "/>
<path style=" stroke:none;fill-rule:nonzero;fill:rgb(22.143555%,44.502258%,75.784302%);fill-opacity:1;" d="M 187.179688 76.277344 L 185.214844 78.21875 C 183.972656 76.90625 182.527344 76.25 180.871094 76.25 C 179.429688 76.25 178.222656 76.726562 177.25 77.683594 C 176.277344 78.636719 175.789062 79.800781 175.789062 81.167969 C 175.789062 82.582031 176.292969 83.777344 177.304688 84.761719 C 178.3125 85.742188 179.558594 86.234375 181.042969 86.234375 C 182.003906 86.234375 182.816406 86.03125 183.480469 85.628906 C 184.140625 85.222656 184.671875 84.589844 185.078125 83.726562 L 180.835938 83.726562 L 180.835938 81.105469 L 188.203125 81.105469 L 188.222656 81.722656 C 188.222656 83.003906 187.890625 84.21875 187.230469 85.367188 C 186.566406 86.515625 185.707031 87.394531 184.652344 87.996094 C 183.59375 88.601562 182.355469 88.902344 180.9375 88.902344 C 179.417969 88.902344 178.058594 88.570312 176.871094 87.914062 C 175.675781 87.25 174.734375 86.3125 174.042969 85.089844 C 173.347656 83.867188 173 82.550781 173 81.136719 C 173 79.199219 173.640625 77.511719 174.921875 76.078125 C 176.441406 74.375 178.421875 73.519531 180.855469 73.519531 C 182.132812 73.519531 183.324219 73.757812 184.429688 74.226562 C 185.367188 74.625 186.285156 75.308594 187.179688 76.277344 "/>
<path style=" stroke:none;fill-rule:nonzero;fill:rgb(22.143555%,44.502258%,75.784302%);fill-opacity:1;" d="M 209.949219 76.460938 L 208 78.320312 C 206.671875 76.917969 205.179688 76.21875 203.523438 76.21875 C 202.125 76.21875 200.945312 76.695312 199.988281 77.652344 C 199.027344 78.609375 198.550781 79.789062 198.550781 81.191406 C 198.550781 82.167969 198.761719 83.035156 199.1875 83.792969 C 199.609375 84.550781 200.210938 85.144531 200.988281 85.578125 C 201.761719 86.007812 202.625 86.222656 203.574219 86.222656 C 204.382812 86.222656 205.121094 86.074219 205.789062 85.769531 C 206.460938 85.46875 207.195312 84.917969 208 84.121094 L 209.890625 86.09375 C 208.808594 87.148438 207.785156 87.882812 206.824219 88.289062 C 205.859375 88.699219 204.761719 88.902344 203.527344 88.902344 C 201.25 88.902344 199.386719 88.179688 197.9375 86.738281 C 196.484375 85.292969 195.761719 83.441406 195.761719 81.1875 C 195.761719 79.726562 196.089844 78.429688 196.75 77.292969 C 197.414062 76.160156 198.359375 75.246094 199.589844 74.554688 C 200.820312 73.867188 202.148438 73.519531 203.566406 73.519531 C 204.777344 73.519531 205.9375 73.773438 207.058594 74.285156 C 208.175781 74.796875 209.140625 75.519531 209.949219 76.460938 "/>
<path style=" stroke:none;fill-rule:nonzero;fill:rgb(22.143555%,44.502258%,75.784302%);fill-opacity:1;" d="M 219.273438 76.25 C 217.917969 76.25 216.777344 76.71875 215.855469 77.660156 C 214.929688 78.605469 214.46875 79.800781 214.46875 81.257812 C 214.46875 82.875 215.050781 84.15625 216.214844 85.097656 C 217.117188 85.835938 218.152344 86.203125 219.324219 86.203125 C 220.644531 86.203125 221.769531 85.726562 222.703125 84.769531 C 223.632812 83.816406 224.097656 82.636719 224.097656 81.238281 C 224.097656 79.84375 223.628906 78.664062 222.691406 77.695312 C 221.753906 76.730469 220.617188 76.25 219.273438 76.25 Z M 219.304688 73.519531 C 221.375 73.519531 223.15625 74.269531 224.648438 75.769531 C 226.136719 77.269531 226.886719 79.097656 226.886719 81.257812 C 226.886719 83.394531 226.148438 85.203125 224.675781 86.683594 C 223.207031 88.164062 221.421875 88.902344 219.324219 88.902344 C 217.125 88.902344 215.296875 88.144531 213.84375 86.621094 C 212.386719 85.101562 211.660156 83.296875 211.660156 81.207031 C 211.660156 79.804688 212 78.519531 212.679688 77.34375 C 213.355469 76.167969 214.285156 75.238281 215.472656 74.550781 C 216.65625 73.863281 217.933594 73.519531 219.304688 73.519531 "/>
<path style=" stroke:none;fill-rule:nonzero;fill:rgb(22.143555%,44.502258%,75.784302%);fill-opacity:1;" d="M 229.523438 73.886719 L 232.195312 73.886719 L 238.464844 83.527344 L 238.464844 73.886719 L 241.25 73.886719 L 241.25 88.535156 L 238.570312 88.535156 L 232.308594 78.925781 L 232.308594 88.535156 L 229.523438 88.535156 L 229.523438 73.886719 "/>
<path style=" stroke:none;fill-rule:nonzero;fill:rgb(22.143555%,44.502258%,75.784302%);fill-opacity:1;" d="M 252.28125 75.878906 L 250.21875 77.703125 C 249.492188 76.691406 248.753906 76.1875 248.003906 76.1875 C 247.636719 76.1875 247.339844 76.285156 247.105469 76.484375 C 246.875 76.679688 246.757812 76.898438 246.757812 77.144531 C 246.757812 77.390625 246.839844 77.621094 247.007812 77.839844 C 247.234375 78.132812 247.914062 78.761719 249.050781 79.722656 C 250.113281 80.613281 250.761719 81.171875 250.984375 81.40625 C 251.550781 81.976562 251.953125 82.523438 252.1875 83.042969 C 252.425781 83.566406 252.542969 84.132812 252.542969 84.75 C 252.542969 85.953125 252.125 86.945312 251.296875 87.726562 C 250.464844 88.511719 249.382812 88.902344 248.046875 88.902344 C 247.003906 88.902344 246.09375 88.648438 245.320312 88.136719 C 244.546875 87.625 243.882812 86.820312 243.332031 85.726562 L 245.675781 84.3125 C 246.378906 85.605469 247.191406 86.253906 248.109375 86.253906 C 248.585938 86.253906 248.988281 86.113281 249.316406 85.835938 C 249.640625 85.558594 249.804688 85.234375 249.804688 84.871094 C 249.804688 84.539062 249.679688 84.207031 249.433594 83.875 C 249.1875 83.542969 248.648438 83.035156 247.808594 82.351562 C 246.214844 81.050781 245.183594 80.046875 244.71875 79.339844 C 244.253906 78.632812 244.019531 77.925781 244.019531 77.222656 C 244.019531 76.207031 244.40625 75.335938 245.179688 74.609375 C 245.953125 73.882812 246.910156 73.519531 248.046875 73.519531 C 248.777344 73.519531 249.472656 73.691406 250.136719 74.027344 C 250.796875 74.367188 251.511719 74.984375 252.28125 75.878906 "/>
<path style=" stroke:none;fill-rule:nonzero;fill:rgb(22.143555%,44.502258%,75.784302%);fill-opacity:1;" d="M 262.085938 76.25 C 260.730469 76.25 259.589844 76.71875 258.667969 77.660156 C 257.742188 78.605469 257.28125 79.800781 257.28125 81.257812 C 257.28125 82.875 257.863281 84.15625 259.027344 85.097656 C 259.929688 85.835938 260.964844 86.203125 262.132812 86.203125 C 263.457031 86.203125 264.582031 85.726562 265.511719 84.769531 C 266.441406 83.816406 266.910156 82.636719 266.910156 81.238281 C 266.910156 79.84375 266.441406 78.664062 265.503906 77.695312 C 264.566406 76.730469 263.425781 76.25 262.085938 76.25 Z M 262.113281 73.519531 C 264.1875 73.519531 265.96875 74.269531 267.460938 75.769531 C 268.949219 77.269531 269.695312 79.097656 269.695312 81.257812 C 269.695312 83.394531 268.960938 85.203125 267.488281 86.683594 C 266.019531 88.164062 264.234375 88.902344 262.132812 88.902344 C 259.9375 88.902344 258.109375 88.144531 256.65625 86.621094 C 255.199219 85.101562 254.472656 83.296875 254.472656 81.207031 C 254.472656 79.804688 254.8125 78.519531 255.488281 77.34375 C 256.167969 76.167969 257.097656 75.238281 258.285156 74.550781 C 259.46875 73.863281 260.746094 73.519531 262.113281 73.519531 "/>
<path style=" stroke:none;fill-rule:nonzero;fill:rgb(22.143555%,44.502258%,75.784302%);fill-opacity:1;" d="M 275.300781 79.613281 L 276.175781 79.613281 C 277.0625 79.613281 277.671875 79.496094 278.007812 79.265625 C 278.339844 79.03125 278.507812 78.644531 278.507812 78.105469 C 278.507812 77.785156 278.425781 77.507812 278.261719 77.269531 C 278.09375 77.035156 277.871094 76.863281 277.59375 76.761719 C 277.316406 76.660156 276.808594 76.605469 276.066406 76.605469 L 275.300781 76.605469 Z M 272.515625 73.886719 L 275.46875 73.886719 C 277.085938 73.886719 278.238281 74.035156 278.921875 74.320312 C 279.609375 74.609375 280.160156 75.089844 280.578125 75.761719 C 280.996094 76.429688 281.207031 77.222656 281.207031 78.140625 C 281.207031 79.101562 280.976562 79.90625 280.515625 80.554688 C 280.054688 81.203125 279.355469 81.691406 278.429688 82.023438 L 281.898438 88.535156 L 278.851562 88.535156 L 275.554688 82.332031 L 275.300781 82.332031 L 275.300781 88.535156 L 272.515625 88.535156 L 272.515625 73.886719 "/>
<path style=" stroke:none;fill-rule:nonzero;fill:rgb(22.143555%,44.502258%,75.784302%);fill-opacity:1;" d="M 282.707031 73.886719 L 290.804688 73.886719 L 290.804688 76.636719 L 288.136719 76.636719 L 288.136719 88.535156 L 285.308594 88.535156 L 285.308594 76.636719 L 282.707031 76.636719 L 282.707031 73.886719 "/>
<path style=" stroke:none;fill-rule:nonzero;fill:rgb(22.143555%,44.502258%,75.784302%);fill-opacity:1;" d="M 292.515625 73.886719 L 295.285156 73.886719 L 295.285156 88.535156 L 292.515625 88.535156 L 292.515625 73.886719 "/>
<path style=" stroke:none;fill-rule:nonzero;fill:rgb(22.143555%,44.502258%,75.784302%);fill-opacity:1;" d="M 298.320312 73.886719 L 301.117188 73.886719 L 301.117188 83.359375 C 301.117188 84.175781 301.191406 84.753906 301.332031 85.089844 C 301.476562 85.429688 301.710938 85.699219 302.039062 85.902344 C 302.367188 86.101562 302.765625 86.203125 303.230469 86.203125 C 303.71875 86.203125 304.144531 86.089844 304.496094 85.867188 C 304.851562 85.640625 305.097656 85.355469 305.234375 85.007812 C 305.371094 84.65625 305.441406 83.992188 305.441406 83.011719 L 305.441406 73.886719 L 308.238281 73.886719 L 308.238281 82.621094 C 308.238281 84.09375 308.152344 85.117188 307.988281 85.6875 C 307.824219 86.257812 307.503906 86.808594 307.039062 87.339844 C 306.570312 87.871094 306.03125 88.265625 305.417969 88.519531 C 304.808594 88.773438 304.097656 88.902344 303.289062 88.902344 C 302.226562 88.902344 301.300781 88.660156 300.515625 88.171875 C 299.730469 87.683594 299.167969 87.074219 298.828125 86.339844 C 298.488281 85.605469 298.320312 84.367188 298.320312 82.621094 L 298.320312 73.886719 "/>
<g clip-path="url(#clip1)" clip-rule="nonzero">
<path style=" stroke:none;fill-rule:nonzero;fill:rgb(22.143555%,44.502258%,75.784302%);fill-opacity:1;" d="M 312.894531 73.886719 L 315.609375 73.886719 L 319.003906 84.105469 L 322.429688 73.886719 L 325.144531 73.886719 L 327.601562 88.535156 L 324.90625 88.535156 L 323.335938 79.285156 L 320.222656 88.535156 L 317.765625 88.535156 L 314.683594 79.285156 L 313.074219 88.535156 L 310.359375 88.535156 L 312.894531 73.886719 "/>
</g>
<path style=" stroke:none;fill-rule:nonzero;fill:rgb(15.25116%,19.844055%,47.996521%);fill-opacity:1;" d="M 49.886719 42.699219 C 49.886719 45.960938 47.242188 48.601562 43.980469 48.601562 C 40.722656 48.601562 38.078125 45.960938 38.078125 42.699219 C 38.078125 39.4375 40.722656 36.796875 43.980469 36.796875 C 47.242188 36.796875 49.886719 39.4375 49.886719 42.699219 "/>
<path style=" stroke:none;fill-rule:nonzero;fill:rgb(0%,67.83905%,93.728638%);fill-opacity:1;" d="M 29.222656 31.039062 C 29.222656 34.300781 26.582031 36.945312 23.320312 36.945312 C 20.058594 36.945312 17.414062 34.300781 17.414062 31.039062 C 17.414062 27.777344 20.058594 25.136719 23.320312 25.136719 C 26.582031 25.136719 29.222656 27.777344 29.222656 31.039062 "/>
<path style=" stroke:none;fill-rule:nonzero;fill:rgb(22.143555%,44.502258%,75.784302%);fill-opacity:1;" d="M 16.675781 51.554688 C 16.675781 55.222656 13.707031 58.195312 10.035156 58.195312 C 6.367188 58.195312 3.394531 55.222656 3.394531 51.554688 C 3.394531 47.886719 6.367188 44.914062 10.035156 44.914062 C 13.707031 44.914062 16.675781 47.886719 16.675781 51.554688 "/>
<path style=" stroke:none;fill-rule:nonzero;fill:rgb(22.143555%,44.502258%,75.784302%);fill-opacity:1;" d="M 70.039062 74.644531 C 70.039062 77.824219 67.464844 80.398438 64.285156 80.398438 C 61.105469 80.398438 58.53125 77.824219 58.53125 74.644531 C 58.53125 71.464844 61.105469 68.886719 64.285156 68.886719 C 67.464844 68.886719 70.039062 71.464844 70.039062 74.644531 "/>
<path style=" stroke:none;fill-rule:nonzero;fill:rgb(69.995117%,90.350342%,98.118591%);fill-opacity:1;" d="M 39.085938 36.191406 C 39.085938 38.960938 36.839844 41.207031 34.066406 41.207031 C 31.296875 41.207031 29.050781 38.960938 29.050781 36.191406 C 29.050781 33.417969 31.296875 31.171875 34.066406 31.171875 C 36.839844 31.171875 39.085938 33.417969 39.085938 36.191406 "/>
<path style=" stroke:none;fill-rule:nonzero;fill:rgb(15.25116%,19.844055%,47.996521%);fill-opacity:1;" d="M 25.070312 48.363281 C 25.070312 50.605469 23.253906 52.421875 21.011719 52.421875 C 18.769531 52.421875 16.949219 50.605469 16.949219 48.363281 C 16.949219 46.121094 18.769531 44.300781 21.011719 44.300781 C 23.253906 44.300781 25.070312 46.121094 25.070312 48.363281 "/>
<path style=" stroke:none;fill-rule:nonzero;fill:rgb(69.995117%,90.350342%,98.118591%);fill-opacity:1;" d="M 66.121094 85.132812 C 66.121094 87.128906 64.503906 88.746094 62.503906 88.746094 C 60.507812 88.746094 58.890625 87.128906 58.890625 85.132812 C 58.890625 83.136719 60.507812 81.515625 62.503906 81.515625 C 64.503906 81.515625 66.121094 83.136719 66.121094 85.132812 "/>
<path style=" stroke:none;fill-rule:nonzero;fill:rgb(22.143555%,44.502258%,75.784302%);fill-opacity:1;" d="M 10.035156 78.566406 C 10.035156 81.007812 8.054688 82.992188 5.605469 82.992188 C 3.164062 82.992188 1.179688 81.007812 1.179688 78.566406 C 1.179688 76.117188 3.164062 74.136719 5.605469 74.136719 C 8.054688 74.136719 10.035156 76.117188 10.035156 78.566406 "/>
<path style=" stroke:none;fill-rule:nonzero;fill:rgb(0%,67.83905%,93.728638%);fill-opacity:1;" d="M 37.191406 14.066406 C 37.191406 16.105469 35.539062 17.753906 33.503906 17.753906 C 31.464844 17.753906 29.8125 16.105469 29.8125 14.066406 C 29.8125 12.027344 31.464844 10.375 33.503906 10.375 C 35.539062 10.375 37.191406 12.027344 37.191406 14.066406 "/>
<path style=" stroke:none;fill-rule:nonzero;fill:rgb(22.143555%,44.502258%,75.784302%);fill-opacity:1;" d="M 38.523438 7.203125 C 38.523438 8.710938 37.296875 9.933594 35.789062 9.933594 C 34.28125 9.933594 33.058594 8.710938 33.058594 7.203125 C 33.058594 5.695312 34.28125 4.472656 35.789062 4.472656 C 37.296875 4.472656 38.523438 5.695312 38.523438 7.203125 "/>
<path style=" stroke:none;fill-rule:nonzero;fill:rgb(15.25116%,19.844055%,47.996521%);fill-opacity:1;" d="M 59.109375 68.675781 C 59.109375 70.183594 57.890625 71.40625 56.378906 71.40625 C 54.871094 71.40625 53.652344 70.183594 53.652344 68.675781 C 53.652344 67.167969 54.871094 65.945312 56.378906 65.945312 C 57.890625 65.945312 59.109375 67.167969 59.109375 68.675781 "/>
<path style=" stroke:none;fill-rule:nonzero;fill:rgb(15.25116%,19.844055%,47.996521%);fill-opacity:1;" d="M 52.320312 97.53125 C 52.320312 98.753906 51.332031 99.742188 50.105469 99.742188 C 48.886719 99.742188 47.894531 98.753906 47.894531 97.53125 C 47.894531 96.308594 48.886719 95.316406 50.105469 95.316406 C 51.332031 95.316406 52.320312 96.308594 52.320312 97.53125 "/>
<path style=" stroke:none;fill-rule:nonzero;fill:rgb(15.25116%,19.844055%,47.996521%);fill-opacity:1;" d="M 19.554688 88.820312 C 19.554688 90.042969 18.566406 91.035156 17.34375 91.035156 C 16.117188 91.035156 15.128906 90.042969 15.128906 88.820312 C 15.128906 87.601562 16.117188 86.609375 17.34375 86.609375 C 18.566406 86.609375 19.554688 87.601562 19.554688 88.820312 "/>
<path style=" stroke:none;fill-rule:nonzero;fill:rgb(15.25116%,19.844055%,47.996521%);fill-opacity:1;" d="M 15.867188 92.214844 C 15.867188 93.359375 14.941406 94.28125 13.800781 94.28125 C 12.65625 94.28125 11.734375 93.359375 11.734375 92.214844 C 11.734375 91.074219 12.65625 90.148438 13.800781 90.148438 C 14.941406 90.148438 15.867188 91.074219 15.867188 92.214844 "/>
<path style=" stroke:none;fill-rule:nonzero;fill:rgb(69.995117%,90.350342%,98.118591%);fill-opacity:1;" d="M 5.976562 70.445312 C 5.976562 71.953125 4.753906 73.175781 3.246094 73.175781 C 1.738281 73.175781 0.515625 71.953125 0.515625 70.445312 C 0.515625 68.9375 1.738281 67.714844 3.246094 67.714844 C 4.753906 67.714844 5.976562 68.9375 5.976562 70.445312 "/>
<path style=" stroke:none;fill-rule:nonzero;fill:rgb(0%,67.83905%,93.728638%);fill-opacity:1;" d="M 14.050781 71.46875 C 14.050781 73.425781 12.464844 75.011719 10.507812 75.011719 C 8.550781 75.011719 6.96875 73.425781 6.96875 71.46875 C 6.96875 69.511719 8.550781 67.925781 10.507812 67.925781 C 12.464844 67.925781 14.050781 69.511719 14.050781 71.46875 "/>
<path style=" stroke:none;fill-rule:nonzero;fill:rgb(69.995117%,90.350342%,98.118591%);fill-opacity:1;" d="M 21.621094 94.800781 C 21.621094 96.472656 20.269531 97.824219 18.597656 97.824219 C 16.925781 97.824219 15.570312 96.472656 15.570312 94.800781 C 15.570312 93.128906 16.925781 91.773438 18.597656 91.773438 C 20.269531 91.773438 21.621094 93.128906 21.621094 94.800781 "/>
<path style=" stroke:none;fill-rule:nonzero;fill:rgb(15.25116%,19.844055%,47.996521%);fill-opacity:1;" d="M 38.722656 26.84375 C 38.722656 28.621094 37.285156 30.058594 35.507812 30.058594 C 33.730469 30.058594 32.289062 28.621094 32.289062 26.84375 C 32.289062 25.066406 33.730469 23.628906 35.507812 23.628906 C 37.285156 23.628906 38.722656 25.066406 38.722656 26.84375 "/>
<path style=" stroke:none;fill-rule:nonzero;fill:rgb(15.25116%,19.844055%,47.996521%);fill-opacity:1;" d="M 13.652344 87.050781 C 13.652344 89.007812 12.066406 90.59375 10.109375 90.59375 C 8.15625 90.59375 6.570312 89.007812 6.570312 87.050781 C 6.570312 85.09375 8.15625 83.507812 10.109375 83.507812 C 12.066406 83.507812 13.652344 85.09375 13.652344 87.050781 "/>
<path style=" stroke:none;fill-rule:nonzero;fill:rgb(15.25116%,19.844055%,47.996521%);fill-opacity:1;" d="M 29.738281 97.605469 C 29.738281 99.84375 27.921875 101.664062 25.679688 101.664062 C 23.441406 101.664062 21.621094 99.84375 21.621094 97.605469 C 21.621094 95.363281 23.441406 93.546875 25.679688 93.546875 C 27.921875 93.546875 29.738281 95.363281 29.738281 97.605469 "/>
<path style=" stroke:none;fill-rule:nonzero;fill:rgb(15.25116%,19.844055%,47.996521%);fill-opacity:1;" d="M 41.683594 12.609375 C 41.683594 13.75 40.761719 14.675781 39.617188 14.675781 C 38.476562 14.675781 37.550781 13.75 37.550781 12.609375 C 37.550781 11.46875 38.476562 10.542969 39.617188 10.542969 C 40.761719 10.542969 41.683594 11.46875 41.683594 12.609375 "/>
<g clip-path="url(#clip2)" clip-rule="nonzero">
<path style=" stroke:none;fill-rule:nonzero;fill:rgb(15.25116%,19.844055%,47.996521%);fill-opacity:1;" d="M 37.625 1.890625 C 37.625 2.855469 36.84375 3.636719 35.875 3.636719 C 34.910156 3.636719 34.128906 2.855469 34.128906 1.890625 C 34.128906 0.921875 34.910156 0.140625 35.875 0.140625 C 36.84375 0.140625 37.625 0.921875 37.625 1.890625 "/>
</g>
<path style=" stroke:none;fill-rule:nonzero;fill:rgb(15.25116%,19.844055%,47.996521%);fill-opacity:1;" d="M 29.078125 41.003906 C 29.078125 43 27.457031 44.617188 25.460938 44.617188 C 23.464844 44.617188 21.84375 43 21.84375 41.003906 C 21.84375 39.003906 23.464844 37.386719 25.460938 37.386719 C 27.457031 37.386719 29.078125 39.003906 29.078125 41.003906 "/>
<path style=" stroke:none;fill-rule:nonzero;fill:rgb(15.25116%,19.844055%,47.996521%);fill-opacity:1;" d="M 44.425781 19.222656 C 44.425781 21.21875 42.804688 22.839844 40.808594 22.839844 C 38.8125 22.839844 37.195312 21.21875 37.195312 19.222656 C 37.195312 17.226562 38.8125 15.605469 40.808594 15.605469 C 42.804688 15.605469 44.425781 17.226562 44.425781 19.222656 "/>
<path style=" stroke:none;fill-rule:nonzero;fill:rgb(0%,67.83905%,93.728638%);fill-opacity:1;" d="M 56.355469 35.015625 C 56.355469 37.011719 54.738281 38.632812 52.738281 38.632812 C 50.742188 38.632812 49.125 37.011719 49.125 35.015625 C 49.125 33.019531 50.742188 31.398438 52.738281 31.398438 C 54.738281 31.398438 56.355469 33.019531 56.355469 35.015625 "/>
<path style=" stroke:none;fill-rule:nonzero;fill:rgb(69.995117%,90.350342%,98.118591%);fill-opacity:1;" d="M 33.796875 21.519531 C 33.796875 23.925781 31.847656 25.875 29.445312 25.875 C 27.039062 25.875 25.089844 23.925781 25.089844 21.519531 C 25.089844 19.113281 27.039062 17.167969 29.445312 17.167969 C 31.847656 17.167969 33.796875 19.113281 33.796875 21.519531 "/>
<path style=" stroke:none;fill-rule:nonzero;fill:rgb(15.25116%,19.844055%,47.996521%);fill-opacity:1;" d="M 8.707031 62.253906 C 8.707031 64.660156 6.757812 66.609375 4.355469 66.609375 C 1.949219 66.609375 0 64.660156 0 62.253906 C 0 59.851562 1.949219 57.902344 4.355469 57.902344 C 6.757812 57.902344 8.707031 59.851562 8.707031 62.253906 "/>
<path style=" stroke:none;fill-rule:nonzero;fill:rgb(15.25116%,19.844055%,47.996521%);fill-opacity:1;" d="M 17.269531 63.214844 C 17.269531 65.414062 15.484375 67.199219 13.28125 67.199219 C 11.082031 67.199219 9.300781 65.414062 9.300781 63.214844 C 9.300781 61.011719 11.082031 59.230469 13.28125 59.230469 C 15.484375 59.230469 17.269531 61.011719 17.269531 63.214844 "/>
<path style=" stroke:none;fill-rule:nonzero;fill:rgb(15.25116%,19.844055%,47.996521%);fill-opacity:1;" d="M 23.023438 70.152344 C 23.023438 72.351562 21.238281 74.136719 19.039062 74.136719 C 16.839844 74.136719 15.054688 72.351562 15.054688 70.152344 C 15.054688 67.949219 16.839844 66.167969 19.039062 66.167969 C 21.238281 66.167969 23.023438 67.949219 23.023438 70.152344 "/>
<path style=" stroke:none;fill-rule:nonzero;fill:rgb(22.143555%,44.502258%,75.784302%);fill-opacity:1;" d="M 29.601562 88.199219 C 29.601562 90.765625 27.488281 92.847656 24.878906 92.847656 C 22.269531 92.847656 20.15625 90.765625 20.15625 88.199219 C 20.15625 85.628906 22.269531 83.546875 24.878906 83.546875 C 27.488281 83.546875 29.601562 85.628906 29.601562 88.199219 "/>
<path style=" stroke:none;fill-rule:nonzero;fill:rgb(0%,67.83905%,93.728638%);fill-opacity:1;" d="M 58.890625 91.550781 C 58.890625 94.121094 56.773438 96.203125 54.164062 96.203125 C 51.558594 96.203125 49.445312 94.121094 49.445312 91.550781 C 49.445312 88.984375 51.558594 86.902344 54.164062 86.902344 C 56.773438 86.902344 58.890625 88.984375 58.890625 91.550781 "/>
<path style=" stroke:none;fill-rule:nonzero;fill:rgb(0%,67.83905%,93.728638%);fill-opacity:1;" d="M 37.636719 48.011719 C 37.636719 50.785156 35.390625 53.03125 32.617188 53.03125 C 29.847656 53.03125 27.601562 50.785156 27.601562 48.011719 C 27.601562 45.242188 29.847656 42.996094 32.617188 42.996094 C 35.390625 42.996094 37.636719 45.242188 37.636719 48.011719 "/>
<path style=" stroke:none;fill-rule:nonzero;fill:rgb(15.25116%,19.844055%,47.996521%);fill-opacity:1;" d="M 20.367188 40.191406 C 20.367188 42.960938 18.121094 45.207031 15.347656 45.207031 C 12.578125 45.207031 10.332031 42.960938 10.332031 40.191406 C 10.332031 37.417969 12.578125 35.171875 15.347656 35.171875 C 18.121094 35.171875 20.367188 37.417969 20.367188 40.191406 "/>
<path style=" stroke:none;fill-rule:nonzero;fill:rgb(22.143555%,44.502258%,75.784302%);fill-opacity:1;" d="M 54.988281 59.882812 C 54.988281 65.75 50.230469 70.507812 44.359375 70.507812 C 38.492188 70.507812 33.734375 65.75 33.734375 59.882812 C 33.734375 54.011719 38.492188 49.253906 44.359375 49.253906 C 50.230469 49.253906 54.988281 54.011719 54.988281 59.882812 "/>
<path style=" stroke:none;fill-rule:nonzero;fill:rgb(15.25116%,19.844055%,47.996521%);fill-opacity:1;" d="M 22.328125 79.699219 C 22.328125 82.878906 19.75 85.457031 16.570312 85.457031 C 13.394531 85.457031 10.816406 82.878906 10.816406 79.699219 C 10.816406 76.519531 13.394531 73.945312 16.570312 73.945312 C 19.75 73.945312 22.328125 76.519531 22.328125 79.699219 "/>
<path style=" stroke:none;fill-rule:nonzero;fill:rgb(15.25116%,19.844055%,47.996521%);fill-opacity:1;" d="M 50.773438 28.972656 C 50.773438 32.152344 48.195312 34.730469 45.015625 34.730469 C 41.835938 34.730469 39.261719 32.152344 39.261719 28.972656 C 39.261719 25.792969 41.835938 23.21875 45.015625 23.21875 C 48.195312 23.21875 50.773438 25.792969 50.773438 28.972656 "/>
<path style=" stroke:none;fill-rule:nonzero;fill:rgb(15.25116%,19.844055%,47.996521%);fill-opacity:1;" d="M 64.792969 46.097656 C 64.792969 50.148438 61.507812 53.433594 57.453125 53.433594 C 53.402344 53.433594 50.117188 50.148438 50.117188 46.097656 C 50.117188 42.042969 53.402344 38.757812 57.453125 38.757812 C 61.507812 38.757812 64.792969 42.042969 64.792969 46.097656 "/>
<path style=" stroke:none;fill-rule:nonzero;fill:rgb(0%,67.83905%,93.728638%);fill-opacity:1;" d="M 71.140625 60.335938 C 71.140625 64.535156 67.738281 67.9375 63.539062 67.9375 C 59.339844 67.9375 55.9375 64.535156 55.9375 60.335938 C 55.9375 56.136719 59.339844 52.734375 63.539062 52.734375 C 67.738281 52.734375 71.140625 56.136719 71.140625 60.335938 "/>
<path style=" stroke:none;fill-rule:nonzero;fill:rgb(15.25116%,19.844055%,47.996521%);fill-opacity:1;" d="M 33.0625 59.597656 C 33.0625 63.796875 29.65625 67.199219 25.460938 67.199219 C 21.261719 67.199219 17.859375 63.796875 17.859375 59.597656 C 17.859375 55.398438 21.261719 51.996094 25.460938 51.996094 C 29.65625 51.996094 33.0625 55.398438 33.0625 59.597656 "/>
<path style=" stroke:none;fill-rule:nonzero;fill:rgb(15.25116%,19.844055%,47.996521%);fill-opacity:1;" d="M 58.003906 78.566406 C 58.003906 83.128906 54.304688 86.828125 49.738281 86.828125 C 45.175781 86.828125 41.472656 83.128906 41.472656 78.566406 C 41.472656 74 45.175781 70.300781 49.738281 70.300781 C 54.304688 70.300781 58.003906 74 58.003906 78.566406 "/>
<path style=" stroke:none;fill-rule:nonzero;fill:rgb(0%,67.83905%,93.728638%);fill-opacity:1;" d="M 40.144531 75.6875 C 40.144531 80.535156 36.214844 84.46875 31.363281 84.46875 C 26.515625 84.46875 22.582031 80.535156 22.582031 75.6875 C 22.582031 70.835938 26.515625 66.902344 31.363281 66.902344 C 36.214844 66.902344 40.144531 70.835938 40.144531 75.6875 "/>
<path style=" stroke:none;fill-rule:nonzero;fill:rgb(15.25116%,19.844055%,47.996521%);fill-opacity:1;" d="M 48.09375 93.632812 C 48.09375 98.804688 43.898438 103 38.722656 103 C 33.546875 103 29.351562 98.804688 29.351562 93.632812 C 29.351562 88.453125 33.546875 84.257812 38.722656 84.257812 C 43.898438 84.257812 48.09375 88.453125 48.09375 93.632812 "/>
</g>
</svg>
